<?xml version="1.0" encoding="UTF-8" standalone="no"?>
<!-- Created with Inkscape (http://www.inkscape.org/) -->
<svg
   xmlns:dc="http://purl.org/dc/elements/1.1/"
   xmlns:cc="http://creativecommons.org/ns#"
   xmlns:rdf="http://www.w3.org/1999/02/22-rdf-syntax-ns#"
   xmlns:svg="http://www.w3.org/2000/svg"
   xmlns="http://www.w3.org/2000/svg"
   xmlns:sodipodi="http://sodipodi.sourceforge.net/DTD/sodipodi-0.dtd"
   xmlns:inkscape="http://www.inkscape.org/namespaces/inkscape"
   width="200"
   height="150"
   id="svg2"
   sodipodi:version="0.32"
   inkscape:version="0.46"
   version="1.0"
   sodipodi:docname="watermark.svg"
   inkscape:output_extension="org.inkscape.output.svg.inkscape">
  <defs
     id="defs4">
    <inkscape:perspective
       sodipodi:type="inkscape:persp3d"
       inkscape:vp_x="0 : 526.18109 : 1"
       inkscape:vp_y="0 : 1000 : 0"
       inkscape:vp_z="744.09448 : 526.18109 : 1"
       inkscape:persp3d-origin="372.04724 : 350.78739 : 1"
       id="perspective10" />
  </defs>
  <sodipodi:namedview
     id="base"
     pagecolor="#ffffff"
     bordercolor="#666666"
     borderopacity="1.0"
     gridtolerance="10000"
     guidetolerance="10"
     objecttolerance="10"
     inkscape:pageopacity="0.0"
     inkscape:pageshadow="2"
     inkscape:zoom="2.8"
     inkscape:cx="98.73002"
     inkscape:cy="55.975752"
     inkscape:document-units="px"
     inkscape:current-layer="layer1"
     showgrid="false"
     inkscape:window-width="847"
     inkscape:window-height="1007"
     inkscape:window-x="0"
     inkscape:window-y="15" />
  <metadata
     id="metadata7">
    <rdf:RDF>
      <cc:Work
         rdf:about="">
        <dc:format>image/svg+xml</dc:format>
        <dc:type
           rdf:resource="http://purl.org/dc/dcmitype/StillImage" />
      </cc:Work>
    </rdf:RDF>
  </metadata>
  <g
     inkscape:label="Layer 1"
     inkscape:groupmode="layer"
     id="layer1">
    <path
       style="opacity:0.15;fill:#000000"
       id="path2481"
       d="M 34.015032,14.384107 C 30.963443,16.995316 27.842405,19.58615 25.289268,22.715386 C 24.150781,24.110766 23.163741,25.623149 22.100978,27.07703 C 21.060873,28.958076 19.894639,30.774712 18.980665,32.720168 C 14.237532,42.816248 12.114442,54.245573 12.835799,65.373761 C 13.047301,68.636547 13.709796,71.854359 14.146794,75.094658 C 15.041362,78.252455 15.710209,81.483104 16.830497,84.568049 C 19.84522,92.869717 24.583332,100.55732 30.987486,106.67215 C 35.754719,111.22401 37.466666,111.77017 43.04124,114.96179 C 45.149142,115.76203 47.209562,116.70074 49.364947,117.36253 C 54.907214,119.06422 60.800691,119.73256 66.576212,119.13506 C 68.068649,118.98067 72.204965,119.23475 71.005458,118.33342 C 69.714078,117.36306 67.792658,118.6725 66.186258,118.84205 C 66.974396,118.52513 67.762535,118.20822 68.550673,117.89131 L 77.665321,117.55384 C 76.730671,117.90529 75.79602,118.25674 74.86137,118.60819 C 74.230179,118.73797 62.853325,121.34021 59.12979,121.5689 C 53.610058,121.90793 47.996583,121.01481 42.774924,119.23192 C 40.667156,118.51224 38.65892,117.52869 36.600917,116.67707 C 31.201063,113.30926 29.602921,112.7692 25.092702,108.03916 C 19.009497,101.65947 14.772648,93.767081 11.881394,85.493025 C 10.791296,82.373434 10.06974,79.13704 9.1639134,75.959047 C 8.6411011,72.709402 7.9139605,69.4861 7.5954766,66.210113 C 6.5216515,55.164543 8.01602,43.879008 11.938955,33.50501 C 12.668809,31.574949 13.601702,29.727899 14.433076,27.839343 C 15.282117,26.374497 16.062593,24.867705 16.980201,23.444806 C 18.856582,20.535173 21.207067,17.910003 23.500347,15.328811 L 34.015032,14.384107 z" />
    <path
       style="opacity:0.15;fill:#000000"
       id="path2489"
       d="M 75.118244,99.723133 C 75.520483,99.48175 75.916795,99.230204 76.32496,98.998983 C 79.49897,97.200942 78.397065,97.955571 82.052611,95.772819 C 85.264629,93.854902 88.152381,92.017086 91.22658,89.848434 C 93.086952,88.53606 94.893282,87.148704 96.726632,85.798839 C 98.660447,84.205216 100.65083,82.677851 102.52808,81.01797 C 109.95812,74.448263 117.08304,66.686879 121.59728,57.769359 C 122.50198,55.982185 123.12864,54.067352 123.89432,52.216348 C 124.55832,48.793426 125.47583,46.554521 124.45227,43.11979 C 123.69271,40.570929 121.8815,38.732977 119.55048,37.559342 C 115.91234,35.727586 113.95903,36.108923 109.89529,35.918514 C 107.74066,36.250936 105.52313,36.301301 103.43139,36.91578 C 102.88817,37.075359 102.76992,37.886904 102.27273,38.157751 C 91.582385,43.981408 97.054827,39.36014 86.822824,46.516003 C 80.801531,50.72706 79.252916,52.631305 74.08979,57.663568 C 69.740179,62.355581 65.983401,67.541268 62.805272,73.087494 C 62.132464,74.261626 61.544999,75.482642 60.914863,76.680215 L 52.700349,77.522354 C 57.428026,70.723309 62.37609,64.056296 68.17659,58.116711 C 70.221313,56.183723 72.183018,54.158957 74.310759,52.317748 C 78.858727,48.38223 83.384238,45.059698 88.612408,42.07477 C 91.02441,40.697681 93.442943,39.262102 96.067529,38.353433 C 105.31064,35.153337 108.6311,34.913532 117.003,33.647092 C 121.34538,33.864049 123.78451,33.461022 127.67365,35.502845 C 130.29076,36.87684 132.02165,38.851715 132.58046,41.799956 C 133.26314,45.401754 132.00771,48.000746 131.01584,51.395478 C 130.09283,53.293652 129.28552,55.252582 128.24683,57.09 C 127.07548,59.162063 125.76445,61.155781 124.39698,63.103992 C 118.54322,71.443777 111.34336,78.737789 103.62059,85.344754 C 98.929894,89.155626 98.892896,89.275812 94.285615,92.698102 C 92.135377,94.295299 90.191045,95.643941 88.028944,97.173983 C 87.461003,97.575894 86.880942,97.961408 86.327387,98.382912 C 86.058796,98.587431 85.819318,98.827595 85.565283,99.049936 L 75.118244,99.723133 z" />
    <path
       style="opacity:0.15;fill:#000000"
       id="path2491"
       d="M 176.18533,129.78761 C 175.98419,129.92118 175.47334,130.26852 175.28892,130.34928 C 174.98317,130.48317 174.67288,130.62658 174.3431,130.67807 C 170.62062,131.2593 166.91079,132.02776 163.14947,132.24473 C 162.43311,132.28605 159.18703,130.04954 159.0008,129.93035 C 158.0681,129.11048 157.08173,128.3479 156.2027,127.47075 C 150.58503,121.86509 146.47466,114.83579 143.49398,107.52412 C 142.55887,105.23026 141.83259,102.85671 141.00189,100.52301 C 140.3718,98.014543 139.61092,95.535348 139.11163,92.997606 C 137.73554,86.003278 137.27304,78.777892 138.43763,71.716736 C 138.73016,69.943057 139.13178,68.177508 139.71672,66.477699 C 140.17515,65.14554 140.93947,63.939176 141.55084,62.669914 C 142.32761,61.937302 142.85623,60.771498 143.88114,60.472076 C 150.71176,58.476539 154.15859,56.470175 158.79357,60.55089 C 160.01349,61.624928 161.03959,62.913468 161.99777,64.226346 C 164.99792,68.337058 165.96936,70.915617 168.2249,75.566357 C 172.12604,84.75574 175.0059,94.3627 176.98984,104.14224 C 177.40097,106.16882 177.71912,108.21315 178.08376,110.2486 L 171.02995,111.4658 C 170.8274,109.41621 170.71137,107.35622 170.4223,105.31703 C 169.02452,95.45663 166.04254,85.874165 161.65049,76.939553 C 158.94423,72.26471 157.99218,69.951211 154.3353,66.070018 C 153.19081,64.85532 151.93741,63.714904 150.53463,62.810701 C 149.48851,62.136392 146.34906,62.400737 147.0802,61.393512 C 148.21115,59.835493 150.75431,59.589125 152.65619,59.888003 C 153.8093,60.069213 150.70464,61.169165 149.72886,61.809746 C 148.89759,63.043564 147.88892,64.174867 147.23507,65.511199 C 146.42552,67.165733 145.82679,68.928652 145.37227,70.713662 C 143.60721,77.645514 143.83066,84.893996 145.27614,91.857508 C 145.79832,94.373104 146.64662,96.809818 147.33186,99.285973 C 148.23941,101.58246 149.03437,103.92669 150.05449,106.17542 C 153.38043,113.50704 158.05405,120.38772 164.45446,125.37271 C 165.49219,126.18095 166.64564,126.82847 167.74124,127.55635 C 168.65737,127.96068 169.54237,128.44458 170.48963,128.76934 C 171.17369,129.00387 173.29493,128.99227 172.61051,129.22576 C 169.88372,130.15601 166.95927,130.35144 164.13813,130.93616 C 163.88778,130.98805 164.64768,130.88119 164.89699,130.8245 C 165.29227,130.73462 165.32381,130.676 165.61576,130.46871 L 176.18533,129.78761 z" />
    <path
       style="opacity:0.15;fill:#000000"
       id="path2507"
       d="M 188.00198,13.966227 C 186.67632,15.529084 185.82655,17.479613 184.99925,19.332027 C 183.27893,23.183992 183.27789,23.362337 181.61868,27.637752 C 178.34742,36.602682 175.31516,45.649402 171.54726,54.425145 C 170.53867,56.774245 169.54035,59.130935 168.40123,61.419592 C 167.30658,63.618928 166.0346,65.725458 164.85128,67.87839 C 161.43607,72.630814 160.52338,74.697795 155.74769,78.210803 C 153.87278,79.589991 151.83113,80.7648 149.70098,81.702835 C 143.59879,84.390004 134.89897,85.519486 128.78379,85.813125 C 126.05882,85.943973 123.35426,85.274072 120.6395,85.004545 C 117.77244,84.261905 114.85595,83.689076 112.03834,82.776626 C 99.362463,78.671698 87.777544,71.56249 77.112945,63.704445 C 74.498302,61.777886 71.995443,59.704054 69.436693,57.703858 C 63.726013,53.047393 58.46011,47.901898 53.26086,42.694549 L 60.533459,40.998774 C 61.630954,42.442072 62.672817,43.929416 63.825945,45.328666 C 68.321975,50.78432 69.108424,51.236525 74.461299,56.439578 C 76.905839,58.457169 79.267719,60.579314 81.794919,62.492351 C 87.149199,66.545428 93.148278,70.401984 99.073241,73.561153 C 104.96912,76.704816 110.90169,79.321039 117.32451,81.196673 C 120.2678,82.05619 123.30696,82.544719 126.29818,83.218742 C 129.10762,83.417959 131.92229,83.553607 134.7265,83.816393 C 135.21766,83.86242 135.68738,84.247089 136.16976,84.143822 C 140.91354,83.128278 145.00932,81.513405 148.98548,78.708248 C 153.90033,75.240854 154.80572,73.296025 158.42396,68.560399 C 159.66294,66.419645 161.00265,64.334105 162.1409,62.138136 C 167.61024,51.586452 170.90216,40.098332 173.79908,28.629826 C 174.93951,24.050337 175.9681,19.427495 177.45599,14.946965 L 188.00198,13.966227 z" />
    <path
       style="opacity:0.15;fill:#000000"
       id="path2515"
       d="M 16.448134,134.79868 C 16.767022,134.56996 17.078749,134.33091 17.404796,134.11252 C 19.857502,132.46969 22.38754,130.96151 24.796327,129.24903 C 28.599761,126.54506 29.485917,125.74265 33.310263,122.6908 C 44.508988,113.36373 55.558363,103.83001 66.115885,93.776855 C 68.470537,91.534692 70.766059,89.231241 73.091145,86.958433 C 82.741948,77.223641 92.099806,67.154264 100.55085,56.350919 C 101.11161,55.610955 101.67238,54.870992 102.23315,54.131028 L 111.18796,53.372778 C 110.41865,54.130908 109.64934,54.889038 108.88004,55.647168 C 104.89257,59.644943 100.88465,63.622353 96.909636,67.632552 C 92.973002,71.604035 88.832573,75.830544 84.922919,79.811925 C 82.682953,82.072397 80.4237,84.313675 78.17409,86.56455 C 65.846317,98.583287 53.289337,110.3632 40.754436,122.16515 C 37.525997,125.10725 36.589848,126.03007 33.394238,128.70256 C 31.77837,130.0539 30.368835,131.11528 28.757729,132.4182 C 27.745129,133.23711 27.712363,133.27675 26.921654,133.97439 L 16.448134,134.79868 z" />
    <path
       style="opacity:0.15;fill:#000000"
       id="path2519"
       d="M 138.43293,26.024387 C 138.08128,25.757242 137.74805,25.463921 137.37796,25.222953 C 133.85402,22.928453 129.87443,21.202731 125.97556,19.688978 C 119.56378,17.199576 116.21747,16.282923 109.45377,14.15609 C 95.736124,10.182791 81.73709,7.2815091 67.607687,5.2395215 C 64.773621,4.8299411 61.927804,4.5062656 59.087863,4.1396376 L 64.838306,2.3677069 C 81.407397,5.3703334 97.955204,8.5348336 114.27027,12.738955 C 122.36035,14.868195 124.92991,15.470853 132.66826,17.769638 C 138.02964,19.36231 143.38015,21.070709 148.48436,23.377526 L 138.43293,26.024387 z" />
    <path
       style="opacity:0.15;fill:#000000"
       id="path2529"
       d="M 129.68539,142.22047 C 127.96367,138.36003 125.64477,134.79891 123.75956,131.01905 C 122.99926,129.49464 122.31694,127.93258 121.59563,126.38934 C 116.94928,115.12693 114.40903,103.15005 112.35153,91.185353 L 120.16054,89.856694 C 120.25558,91.475108 120.28958,93.098265 120.44565,94.711937 C 121.45881,105.18705 124.33585,115.4579 129.18867,124.80729 C 130.0618,126.30169 130.89011,127.82319 131.80806,129.29049 C 134.19886,133.11207 136.99466,136.66235 139.97285,140.03859 L 129.68539,142.22047 z" />
  </g>
</svg>
